HIERARCHY
ROOT Hips
{
  OFFSET 57.8838 95.319 338.509
  CHANNELS 6 Xposition Yposition Zposition Zrotation Xrotation Yrotation
  JOINT LeftUpLeg
  {
    OFFSET 8.64259 1.95398 -2.38835
    CHANNELS 3 Zrotation Xrotation Yrotation
    JOINT LeftLeg
    {
      OFFSET 43.7702 0 0
      CHANNELS 3 Zrotation Xrotation Yrotation
      JOINT LeftFoot
      {
        OFFSET 40.6238 0 0
        CHANNELS 3 Zrotation Xrotation Yrotation
        JOINT LeftToeBase
        {
          OFFSET 12.7242 0 0
          CHANNELS 3 Zrotation Xrotation Yrotation
          End Site
          {
            OFFSET 0 0 0
          }
        }
      }
    }
  }
  JOINT RightUpLeg
  {
    OFFSET -8.2249 1.95398 -2.59336
    CHANNELS 3 Zrotation Xrotation Yrotation
    JOINT RightLeg
    {
      OFFSET 43.5653 0 0
      CHANNELS 3 Zrotation Xrotation Yrotation
      JOINT RightFoot
      {
        OFFSET 40.6238 0 0
        CHANNELS 3 Zrotation Xrotation Yrotation
        JOINT RightToeBase
        {
          OFFSET 12.7242 0 0
          CHANNELS 3 Zrotation Xrotation Yrotation
          End Site
          {
            OFFSET 0 0 0
          }
        }
      }
    }
  }
  JOINT Spine
  {
    OFFSET 0.165834 0.87714 6.61349
    CHANNELS 3 Zrotation Xrotation Yrotation
    JOINT Spine1
    {
      OFFSET 7.38963 1.71661e-005 0
      CHANNELS 3 Zrotation Xrotation Yrotation
      JOINT Spine2
      {
        OFFSET 11.9445 1.14441e-005 0
        CHANNELS 3 Zrotation Xrotation Yrotation
        JOINT Spine3
        {
          OFFSET 14.7254 4.19617e-005 0
          CHANNELS 3 Zrotation Xrotation Yrotation
          JOINT Spine4
          {
            OFFSET 10.9679 0 0
            CHANNELS 3 Zrotation Xrotation Yrotation
            JOINT RightShoulder
            {
              OFFSET 2.46616 -1.6653 3.69651
              CHANNELS 3 Zrotation Xrotation Yrotation
              JOINT RightArm
              {
                OFFSET 13.0012 0 0
                CHANNELS 3 Zrotation Xrotation Yrotation
                JOINT RightForeArm
                {
                  OFFSET 28.7848 1.62311e-005 0
                  CHANNELS 3 Zrotation Xrotation Yrotation
                  JOINT RightHand
                  {
                    OFFSET 26.5688 1.62095e-005 0
                    CHANNELS 3 Zrotation Xrotation Yrotation
                    End Site
                    {
                      OFFSET 0 0 0
                    }
                  }
                }
              }
            }
            JOINT LeftShoulder
            {
              OFFSET 2.38034 -1.29275 -3.7523
              CHANNELS 3 Zrotation Xrotation Yrotation
              JOINT LeftArm
              {
                OFFSET 16.3182 6.07031e-005 0
                CHANNELS 3 Zrotation Xrotation Yrotation
                JOINT LeftForeArm
                {
                  OFFSET 27.0901 0 0
                  CHANNELS 3 Zrotation Xrotation Yrotation
                  JOINT LeftHand
                  {
                    OFFSET 24.5451 1.51738e-005 0
                    CHANNELS 3 Zrotation Xrotation Yrotation
                    End Site
                    {
                      OFFSET 0 0 0
                    }
                  }
                }
              }
            }
            JOINT Neck
            {
              OFFSET 5.0226 -0.0266342 0
              CHANNELS 3 Zrotation Xrotation Yrotation
              JOINT Head
              {
                OFFSET 6.69364 2.86102e-005 0
                CHANNELS 3 Zrotation Xrotation Yrotation
                End Site
                {
                  OFFSET 0 0 0
                }
              }
            }
          }
        }
      }
    }
  }
}
MOTION
Frames:	18
Frame Time:	0.0416667
-23.9957 95.2048 58.9541 104.509 45.1145 79.7636 -178.392 -3.86666 84.5303 -25.7365 20.6945 1.95908 63.3242 7.06651 12.6416 44.4775 6.54211 1.85446 170.487 19.9525 88.9892 -27.8271 0.368916 2.42405 61.0868 3.53597 10.2341 30.3165 -2.01563 -6.71051 -0.556612 7.96501 -89.8379 10.9463 -1.03311 0.420203 -0.724312 -1.01359 0.465259 -23.2627 -1.11162 0.0902532 -3.25008 -1.11162 0.0902449 91.9448 -62.3845 -95.6711 21.9397 -3.87405 -3.29925 -0.372794 -11.0468 -19.4801 -9.60668 -0.842203 5.25619 -81.5706 -54.4938 91.7288 -30.3738 -13.6625 -34.1247 5.25447 61.7329 -10.6028 5.67323 -0.772322 -14.0058 -4.39649 -0.547802 -2.27607 -30.8414 -1.3692 4.05847 
-18.0342 95.3169 55.2634 104.02 46.6834 78.3054 -178.413 -9.51903 84.7706 -21.9612 22.8033 2.21052 60.713 7.44278 11.8109 49.8896 9.13979 3.7676 174.09 19.8905 86.7126 -15.093 9.0478 -0.527057 64.9621 6.50693 15.5313 26.8423 3.0789 -5.40712 -0.561522 7.86842 -89.7629 11.1396 -1.00749 0.57017 -0.53114 -0.981389 0.613956 -23.0692 -1.13225 0.240994 -3.05651 -1.13226 0.240987 91.8729 -62.6173 -95.7309 21.7522 -4.02063 -3.60165 -0.258748 -11.4939 -18.4464 -8.57549 -0.702609 4.50738 -81.694 -54.8274 91.5738 -29.7137 -12.8988 -34.1001 7.82998 61.2543 -14.3303 6.23524 -0.878237 -14.767 -5.32604 -1.11019 -2.00506 -30.2646 -1.90261 3.82573 
-11.1829 94.3923 51.0931 104.007 48.0682 77.2383 -179.2 -11.4022 84.8936 -27.231 24.0893 3.80767 60.3593 6.78702 9.5739 54.5465 11.806 6.45606 172.864 20.7856 85.0203 -18.9981 3.95276 0.70457 60.25 10.983 10.4119 27.1746 2.52791 -4.75187 -0.562918 7.74441 -89.8432 11.3851 -1.04683 0.416407 -0.285511 -1.02751 0.462065 -22.8238 -1.12359 0.0825012 -2.81117 -1.12359 0.0824899 92.1154 -62.6185 -95.4075 21.2971 -3.63727 -3.86076 -0.00889198 -12.0247 -17.3797 -8.43945 -0.64731 3.95797 -81.5358 -56.5443 91.9072 -30.0792 -15.3396 -31.4888 0.221002 64.2185 -4.30107 6.87182 -0.948847 -14.8204 -5.57752 -1.32098 -1.11248 -30.3515 -2.09547 3.39041 
-4.14604 94.2754 47.1917 103.337 48.8837 80.1327 -177.359 -8.58134 89.8427 -38.0261 19.3035 5.14978 57.6564 0.737522 -0.288385 59.2329 13.4988 4.31065 171.985 20.6287 88.1733 -26.9214 0.0486047 2.19812 61.4269 9.14684 5.67738 22.291 8.8586 -1.01095 -0.51276 7.5715 -90.354 11.7279 -1.18602 -0.580955 0.0574047 -1.21042 -0.528199 -22.4798 -0.956591 -0.910564 -2.46713 -0.956589 -0.910558 92.4482 -61.9032 -95.0703 20.4696 -3.15228 -4.18554 0.3526 -11.2692 -17.1115 -9.01655 -0.719862 4.32027 -81.459 -58.3176 92.1213 -33.2232 -23.2021 -27.8411 2.36175 71.3871 0.00140801 6.19994 -0.601885 -13.3778 -5.51359 -1.53363 -0.721958 -30.0361 -2.41676 3.7127 
1.87825 94.0111 44.3745 104.514 51.4926 80.5934 -177.226 0.7036 92.8842 -56.2841 19.1548 5.84259 52.3874 -3.30984 4.89475 43.5723 7.00054 10.4354 170.67 18.8889 90.6852 -33.5394 3.54883 3.00252 66.7871 6.09785 5.4726 22.3604 8.32818 1.23406 -0.674416 7.61723 -90.6735 11.6294 -1.65712 -1.17131 -0.0409485 -1.70703 -1.09725 -22.5771 -1.22851 -1.61517 -2.56448 -1.22852 -1.61516 93.0287 -61.2351 -94.3847 18.7614 -3.26041 -5.6026 -0.159423 -10.6585 -18.8943 -8.5354 -0.624663 3.45255 -82.0489 -58.2081 91.2999 -37.0415 -31.2968 -24.459 10.4486 78.2292 0.0760989 2.88434 -0.0863522 -11.9298 -4.33606 -2.48782 -2.46712 -28.054 -3.123 3.73338 
6.77453 94.2105 41.8653 105.856 50.1065 79.7604 -177.289 10.0072 90.9092 -63.7637 13.3675 5.07925 53.709 -1.14735 6.14062 46.0214 8.22376 10.502 170.623 15.5024 92.0979 -36.0611 4.22201 2.60272 69.5392 3.56264 5.70204 24.0118 6.07989 1.85818 -0.35335 7.90921 -90.7225 11.0485 -1.03821 -1.33586 -0.622728 -1.09599 -1.28889 -23.1534 -0.588792 -1.58607 -3.14071 -0.588809 -1.58608 92.9154 -61.2076 -94.5421 16.4124 -2.724 -8.36047 0.244961 -8.2321 -21.867 -12.5132 -1.05408 4.76515 -82.356 -57.9907 90.8604 -37.7742 -35.2403 -21.9301 13.7193 87.9053 0.592659 -5.55744 0.521052 -12.7 -3.79775 -3.32859 -4.77622 -26.2027 -3.56468 3.37064 
10.8673 94.7068 39.6841 104.733 45.5376 80.2803 -176.967 14.2172 88.6849 -54.809 11.4184 3.013 55.6656 1.74228 7.15073 53.0652 11.8632 10.3613 171.022 12.7055 92.6357 -36.1638 2.67313 1.96252 71.0383 0.803773 6.55688 25.0071 4.61509 3.30389 0.0712176 8.05664 -90.6353 10.7579 -0.151111 -1.24949 -0.913599 -0.205957 -1.24163 -23.444 0.231352 -1.23714 -3.4314 0.231365 -1.23715 92.7076 -60.0106 -95.0023 15.5713 -2.87414 -11.3298 -0.501599 -8.28441 -24.5951 -13.5362 -1.04877 3.90878 -81.8186 -58.6975 91.6489 -32.6359 -34.2718 -14.2565 9.88176 83.4913 0.141092 -4.84025 0.418402 -13.5705 -3.67409 -2.82271 -4.96367 -25.2643 -3.16601 4.18872 
14.2195 95.5793 37.5776 102.772 41.5298 82.4911 179.982 15.0351 88.2528 -35.4202 11.427 2.07568 55.1894 1.06757 5.44908 55.1997 13.5401 12.8904 172.081 9.28773 93.972 -32.9479 1.48998 0.958063 71.4199 -0.602464 8.04459 25.4264 4.14092 2.84257 0.335395 8.06735 -90.6872 10.7393 0.351087 -1.39876 -0.93234 0.289183 -1.41285 -23.463 0.755224 -1.22862 -3.45031 0.755209 -1.22863 92.326 -58.6908 -95.7353 15.2904 -3.84367 -12.6451 -1.79868 -7.81911 -28.6186 -13.5564 -1.08948 4.25609 -81.3503 -59.52 92.3389 -31.0034 -33.3147 -11.2155 7.7137 77.8783 0.0563747 0.752373 -0.0259362 -12.6432 -3.14087 -2.21067 -3.72492 -24.6244 -2.76792 4.8219 
17.3737 96.2156 35.4998 100.594 37.0814 85.4066 174.024 13.868 89.1555 -20.4284 20.3955 3.59429 55.5706 1.04198 1.32855 51.6423 11.507 12.4406 173.055 6.04223 95.2676 -29.4187 -1.06181 0.453157 71.7675 -1.83095 9.59831 25.6125 3.88576 3.01841 0.414955 7.99163 -90.7082 10.8919 0.498978 -1.4555 -0.779805 0.434421 -1.47605 -23.3107 0.913296 -1.23831 -3.29805 0.913302 -1.2383 91.3818 -58.3196 -97.1142 14.9724 -5.78721 -14.3527 -2.1829 -7.24629 -29.1472 -12.1823 -0.913059 3.6531 -81.1865 -59.196 92.5448 -31.7524 -32.3716 -12.1654 7.28161 77.9591 0.0480417 -0.827157 0.0522248 -13.6714 -3.12623 -1.10344 -4.24051 -24.7671 -1.92637 6.43515 
20.4862 96.2455 33.3367 99.0115 28.6328 87.8705 169.744 12.5258 91.3106 -17.7911 32.8781 6.11225 55.8992 -0.395069 -6.92825 50.6385 10.8751 12.2579 173.824 3.88826 95.438 -28.7528 -6.2749 -0.0666277 73.2948 -3.75587 11.6143 25.6099 3.92635 2.6763 0.618875 7.98264 -90.6203 10.9126 0.945226 -1.3233 -0.758723 0.886088 -1.36362 -23.2932 1.29921 -0.978074 -3.28058 1.29922 -0.978075 90.8105 -57.8218 -98.0045 16.0669 -8.38396 -15.6937 -2.27299 -7.4099 -28.4799 -12.2648 -0.886365 3.31241 -80.8745 -59.7507 92.9981 -30.7424 -30.7687 -14.0657 5.86447 77.3411 0.041562 -1.063 0.0425091 -13.6506 -3.82713 -0.80838 -2.8398 -23.2332 -1.54606 5.47983 
23.8402 95.866 30.8908 97.1019 17.7767 92.1159 171.096 11.1316 94.1903 -21.036 36.541 7.73627 56.0334 0.352006 -2.87028 43.8026 6.53453 3.50806 175.533 2.97508 96.5888 -29.3492 -11.5694 -1.08291 75.3202 -5.67064 15.1439 25.7501 3.81481 2.0478 0.788905 7.86966 -90.6063 11.1403 1.28858 -1.33169 -0.530779 1.22877 -1.38712 -23.0683 1.62923 -0.882842 -3.05564 1.62923 -0.882843 90.2047 -58.4735 -98.726 16.2914 -11.3147 -15.329 -3.25361 -8.20046 -28.1925 -9.1938 -0.681125 3.63845 -81.0954 -59.0934 92.6636 -29.0672 -29.2365 -13.8369 3.65024 72.9475 0.0300746 3.16629 -0.318431 -12.8933 -3.45886 -1.73745 -3.59284 -21.2122 -2.11681 4.6076 
26.3878 95.9097 28.6004 95.521 10.2759 91.961 172.167 10.2603 92.2949 -21.533 33.1818 7.40032 56.2377 1.40057 3.71591 42.0604 5.50354 1.71704 178.046 3.25573 95.8131 -30.0245 -13.0532 -4.16968 75.1705 -6.62346 16.4986 28.4901 0.313234 1.62378 0.322039 7.75893 -90.1993 11.357 0.547914 -0.451811 -0.313904 0.527518 -0.475496 -22.8497 0.65838 -0.266243 -2.83707 0.658375 -0.266251 90.426 -60.1527 -98.1031 17.3061 -9.81985 -14.0768 -2.0639 -8.34624 -26.0018 -11.8954 -0.962735 4.3623 -81.1835 -58.0266 92.4856 -28.6124 -30.4507 -17.9425 5.45482 74.8709 0.0340166 4.20668 -0.35687 -13.4334 -3.29451 -4.59852 -1.28282 -19.2256 -4.18717 -1.85473 
27.3917 95.9882 26.4539 93.844 1.78004 90.8513 176.623 11.6913 92.0022 -23.3445 29.1197 6.18622 59.2269 1.55944 4.63328 39.7445 4.42623 -0.207206 -179.402 7.73254 94.8343 -34.2971 -12.7942 -5.34472 73.5696 -5.39799 20.5135 29.9787 -1.59781 0.27918 0.0128294 7.69224 -89.9983 11.4895 0.0264194 0.00154959 -0.181386 0.0264736 0.000374336 -22.7166 0.0247244 0.00941828 -2.70396 0.0247182 0.00941067 91.0232 -59.7322 -97.3614 19.2984 -7.34558 -12.2699 0.111361 -7.14496 -23.304 -15.3758 -1.12777 3.40284 -82.1002 -56.5308 91.1127 -27.7728 -31.9034 -22.1183 7.09297 75.9442 0.0370877 1.82564 -0.107654 -12.9399 -2.10136 -8.34309 2.71137 -15.9256 -7.59942 -8.7925 
27.9464 96.1354 24.4431 93.9994 -9.96275 94.421 -179.751 10.4896 92.081 -22.4613 23.2228 3.73147 60.9048 1.11123 6.5764 37.9581 3.69791 -0.589957 -179.544 14.6871 92.0131 -42.6938 -16.4926 -4.00208 68.2235 0.826212 24.0916 26.9745 2.55134 -1.92723 -0.175372 7.85032 -89.9056 11.1734 -0.305069 0.217445 -0.497553 -0.295246 0.230659 -23.033 -0.35634 0.115704 -3.0203 -0.35635 0.115689 90.8723 -59.7542 -97.5645 17.7182 -8.94041 -13.008 0.0488082 -9.06602 -20.221 -11.7191 -0.940633 4.24459 -82.8513 -53.559 89.8035 -28.0775 -32.5593 -23.9549 8.0093 71.7047 0.0284463 7.04314 -0.362529 -11.7533 -1.05205 -10.651 5.46062 -13.1047 -10.0763 -12.8531 
28.6163 96.2985 22.7491 94.5393 -20.5006 94.465 -177.07 8.99197 92.8807 -21.9512 16.4896 1.68533 63.0887 0.93942 7.17477 35.1857 2.59221 -0.478114 174.457 19.7434 90.5526 -47.4101 -14.6589 -0.259389 64.0491 4.34605 23.7017 29.4636 -0.792703 -4.53826 -0.452442 7.96222 -90.0206 10.9502 -0.910224 0.0450784 -0.720497 -0.907345 0.0850878 -23.258 -0.881673 -0.230583 -3.24538 -0.881675 -0.230583 91.3114 -60.0441 -96.9115 16.6983 -7.67377 -11.9655 -0.0826066 -9.44557 -20.4516 -11.8671 -0.928276 4.04463 -83.0123 -52.3829 89.4664 -26.8302 -32.7044 -24.0027 7.48244 66.9089 0.0213362 10.5236 -0.55616 -11.4104 -0.123569 -10.9584 6.13046 -11.6892 -10.6112 -13.4238 
29.6592 96.459 21.803 94.8466 -29.4055 94.9666 -175.582 7.04182 92.5305 -20.274 10.0297 0.39963 63.9609 0.436044 7.79432 34.8517 2.45856 -1.77627 163.117 20.2863 90.7211 -46.4924 -2.05968 4.64037 63.6738 -1.50127 10.0729 33.8991 -7.279 -5.30889 -0.533881 7.91261 -90.1348 11.0482 -1.12521 -0.160051 -0.622238 -1.13115 -0.110381 -23.1607 -1.0251 -0.490857 -3.14805 -1.02508 -0.490861 92.4911 -60.3951 -95.2405 16.4556 -4.66444 -8.9227 0.523026 -8.28844 -21.0426 -13.2817 -1.15948 5.08612 -82.6648 -53.0129 90.0311 -26.7637 -31.3956 -25.7411 6.66079 63.1512 0.0155981 9.42141 -0.543103 -11.7982 1.40353 -11.4426 7.47332 -12.1385 -11.0582 -16.233 
30.8048 96.5758 21.6894 95.2833 -40.7519 94.4806 -174.259 4.00231 90.8556 -16.9348 2.22252 -1.15214 62.7157 0.679022 9.83763 37.5924 3.57763 0.339826 156.26 17.2368 89.4849 -40.4118 16.9158 8.94258 62.1184 -2.71113 2.39084 35.6519 -9.88645 -5.67365 -0.359065 7.72201 -90.1116 11.4295 -0.766509 -0.145143 -0.241272 -0.77218 -0.111271 -22.7778 -0.687472 -0.368816 -2.76513 -0.687466 -0.368817 91.7579 -60.6732 -96.1966 16.5256 -2.32092 -7.17618 2.36946 -9.60663 -14.5305 -13.9395 -1.20361 4.95669 -82.5686 -53.9852 90.2513 -25.6225 -28.1503 -25.2059 2.79581 58.4059 0.010317 11.0765 -0.559277 -10.6315 2.71612 -11.6808 7.23232 -12.2436 -11.4225 -14.9717 
31.5106 96.6403 22.506 95.3431 -55.8862 93.9603 -173.542 0.281576 90.1878 -12.549 -8.41985 -2.41827 59.5225 0.550333 12.9934 41.5795 5.34165 2.49487 160.331 13.4854 90.101 -31.2179 20.9278 9.02294 62.9884 -1.68373 2.4968 32.8305 -5.45542 -1.27083 0.0299101 7.51251 -90.1827 11.8482 -0.0263198 -0.360385 0.177224 -0.0421525 -0.358876 -22.3575 0.0832085 -0.351631 -2.34485 0.083213 -0.351627 90.9455 -60.1485 -97.3943 17.0606 -1.54628 -8.2148 4.39266 -11.7566 -6.94433 -12.6573 -1.17831 5.81352 -82.1304 -56.4291 91.0626 -24.7624 -25.1947 -23.4378 -0.173883 55.8917 -0.0380713 11.8655 -0.880396 -12.3005 5.47415 -10.1702 10.2124 -13.7749 -10.3578 -15.6479 
